# xmcd
#
# Track frame offsets:
#	150
#	16264
#	30022
#	47457
#	76709
#	93652
#	114989
#	146159
#
# Disc length: 2199 seconds
# Revision: 0
# Processed by: cddbd v1.5.2PL0 Copyright (c) Steve Scherf et al.
# Submitted via: dBpowerAMP V12.0
#
DISCID=50089508
DTITLE=Alexis Korner And Snape - Accidentally Borne In New Orleans
DYEAR=1973
DGENRE=Blues
TTITLE0=Gospel Ship
TTITLE1=One Scotch, One Bourbon, One Beer
TTITLE2=Sweet Sympathy
TTITLE3=Rock Me
TTITLE4=Don't Change on Me
TTITLE5=You Got the Power (To Turn Me On)
TTITLE6=Lo and Behold
TTITLE7=Country Shoes
EXTD=
EXTT0=
EXTT1=
EXTT2=
EXTT3=
EXTT4=
EXTT5=
EXTT6=
EXTT7=
PLAYORDER=
